<?xml version="1.0" encoding="utf-8"?>
<!-- Generator: Adobe Illustrator 16.0.0, SVG Export Plug-In . SVG Version: 6.00 Build 0)  -->
<!DOCTYPE svg PUBLIC "-//W3C//DTD SVG 1.1//EN" "http://www.w3.org/Graphics/SVG/1.1/DTD/svg11.dtd">
<svg version="1.1" id="Layer_1" xmlns="http://www.w3.org/2000/svg" xmlns:xlink="http://www.w3.org/1999/xlink" x="0px" y="0px"
	 width="11px" height="11px" viewBox="0 0 11 11" enable-background="new 0 0 11 11" xml:space="preserve">
<path fill="#222222" d="M9.723,0H1.277C0.572,0,0,0.585,0,1.307v8.387C0,9.813,0.037,9.92,0.066,10.03l6.104-6.104L3.633,3.914
	C3.247,3.912,2.935,3.597,2.937,3.21C2.938,2.824,3.271,2.499,3.64,2.514l4.214,0.021c0.053,0,0.101,0.019,0.151,0.031
	c0.037,0.009,0.076,0.008,0.112,0.023c0.06,0.025,0.11,0.067,0.162,0.107c0.021,0.017,0.048,0.025,0.067,0.045
	c0.054,0.054,0.089,0.118,0.121,0.182c0.008,0.016,0.022,0.028,0.029,0.044C8.521,3.023,8.526,3.082,8.534,3.14
	c0.005,0.032,0.02,0.062,0.02,0.094l0.021,4.214c0.002,0.386-0.311,0.701-0.697,0.703c-0.001,0-0.002,0-0.003,0
	c-0.385,0-0.698-0.312-0.7-0.697L7.162,4.917l-6.051,6.049C1.168,10.974,1.219,11,1.277,11h8.445C10.428,11,11,10.415,11,9.693
	V1.307C11,0.585,10.428,0,9.723,0z"/>
</svg>
